PathFileType	4	(X/Y/Z)	E:\Qualisys_Data\Carbon_Farble_Plate\Data\Amateur_Runner\S1\T1\S1T1V12_c3d.trc
DataRate	CameraRate	NumFrames	NumMarkers	Units	OrigDataRate	OrigDataStartFrame	OrigNumFrames
200.000000	200.000000	4	39	mm	200.000000	0	312
Frame#	Time	LSHO			RSHO			LICST			RICST			LASIS			LHEEL			RASIS			LTROC			RTROC			SACR			LTH1			LSK4			LTH2			LTH3			RHM5			LSK2			LTH4			RTH1			LTOE			RTH2			RTH3			RTH4			LLEP			RLEP			LSK1			LSK3			RSK1			LHM5			RSK2			LFT1			RSK3			RSK4			LLME			RLME			RTOE			RHEEL			RFT1			RFT2			LFT2			
		X1	Y1	Z1	X2	Y2	Z2	X3	Y3	Z3	X4	Y4	Z4	X5	Y5	Z5	X6	Y6	Z6	X7	Y7	Z7	X8	Y8	Z8	X9	Y9	Z9	X10	Y10	Z10	X11	Y11	Z11	X12	Y12	Z12	X13	Y13	Z13	X14	Y14	Z14	X15	Y15	Z15	X16	Y16	Z16	X17	Y17	Z17	X18	Y18	Z18	X19	Y19	Z19	X20	Y20	Z20	X21	Y21	Z21	X22	Y22	Z22	X23	Y23	Z23	X24	Y24	Z24	X25	Y25	Z25	X26	Y26	Z26	X27	Y27	Z27	X28	Y28	Z28	X29	Y29	Z29	X30	Y30	Z30	X31	Y31	Z31	X32	Y32	Z32	X33	Y33	Z33	X34	Y34	Z34	X35	Y35	Z35	X36	Y36	Z36	X37	Y37	Z37	X38	Y38	Z38	X39	Y39	Z39	

1	0	-2310.055908203125	1570.458862304688	-473.8858337402344	-2392.4208984375	1557.844360351562	-165.4200286865234	-2365.545654296875	1091.76611328125	-472.2096557617188	-2375.250732421875	1105.948974609375	-178.0955657958984	-2326.343994140625	1047.856567382812	-447.2997436523438	-2884.591552734375	314.224853515625	-378.4590454101562	-2337.531494140625	1057.623779296875	-184.5952453613281	-2455.412109375	987.230224609375	-492.3561401367188	-2437.978515625	968.2784423828125	-154.4637756347656	-2487.7578125	1122.242309570312	-323.5107116699219	-2387.542236328125	807.1112060546875	-472.9902954101562	-2791.721923828125	406.9891967773438	-411.1641540527344	-2464.68603515625	830.2815551757812	-497.5267028808594	-2423.072265625	709.7269287109375	-459.7831726074219	-2031.174926757812	157.6905212402344	-164.2502593994141	-2723.957275390625	475.8045654296875	-448.3595886230469	-2502.409912109375	738.4161376953125	-473.97314453125	-2272.682373046875	881.3460693359375	-171.3248901367188	-2773.318603515625	82.64511108398438	-380.677490234375	-2343.59423828125	848.8803100585938	-150.9298400878906	-2232.397705078125	787.6992797851562	-177.9270629882812	-2306.78076171875	757.694580078125	-168.4692687988281	-2532.459716796875	581.8217163085938	-442.5795288085938	-2225.990234375	607.2357788085938	-195.2391815185547	-2665.462890625	414.6756896972656	-447.0347900390625	-2742.875732421875	349.1806945800781	-441.6380920410156	-2201.57958984375	417.4007873535156	-169.8627319335938	-2824.828369140625	128.8180236816406	-435.65380859375	-2279.26806640625	402.5767822265625	-191.9222717285156	-2897.849853515625	295.4452209472656	-346.6252136230469	-2177.838623046875	319.9225769042969	-182.0338134765625	-2252.756591796875	306.9067993164062	-213.6467895507812	-2844.849853515625	283.2476806640625	-428.8765258789062	-2173.46923828125	179.4690093994141	-187.9601287841797	-1974.3896484375	210.4276580810547	-235.2984161376953	-2215.16845703125	118.2658004760742	-235.9835052490234	-2190.928955078125	98.38014984130859	-267.9015197753906	-2198.84033203125	95.67190551757812	-210.6102447509766	-2910.912109375	295.3756408691406	-399.7382202148438
2	0.005	-2293.589599609375	1571.626098632812	-472.5809631347656	-2376.183349609375	1557.773315429688	-164.1860961914062	-2348.92041015625	1092.4599609375	-471.9745178222656	-2357.78515625	1105.254638671875	-177.5072479248047	-2309.64111328125	1048.10400390625	-447.4296569824219	-2872.8720703125	320.83349609375	-378.0659790039062	-2319.866943359375	1057.871337890625	-184.7875061035156	-2438.6103515625	987.4487915039062	-492.3340759277344	-2421.510009765625	968.27197265625	-155.1448516845703	-2470.89501953125	1122.53173828125	-323.2071533203125	-2369.183349609375	807.2723388671875	-472.364501953125	-2776.847412109375	412.2409362792969	-410.5012512207031	-2447.251708984375	830.4229736328125	-497.0018920898438	-2404.57373046875	709.8985595703125	-459.22900390625	-2005.942749023438	162.3059539794922	-164.3821105957031	-2707.97802734375	480.0459289550781	-448.3341064453125	-2484.30517578125	738.27392578125	-473.5819396972656	-2255.65380859375	878.7872314453125	-171.8219604492188	-2764.095458984375	88.7766342163086	-378.8252563476562	-2328.011474609375	846.8089599609375	-150.6882171630859	-2219.04052734375	783.7083740234375	-177.8502502441406	-2293.555908203125	754.6534423828125	-167.8759307861328	-2513.76953125	581.1480712890625	-442.4046630859375	-2212.3017578125	604.5037841796875	-195.6470794677734	-2650.821044921875	417.1482543945312	-447.1820373535156	-2729.63427734375	353.5058288574219	-441.512451171875	-2183.9208984375	416.7726745605469	-169.2901306152344	-2815.11669921875	135.7875213623047	-434.6970520019531	-2260.96630859375	399.0385437011719	-192.3862762451172	-2887.360595703125	302.500732421875	-346.6930541992188	-2158.324462890625	319.5697326660156	-181.3155212402344	-2231.284912109375	303.4375915527344	-212.9295196533203	-2832.950927734375	289.8157958984375	-428.4372253417969	-2149.16845703125	179.0917053222656	-187.1093597412109	-1951.36083984375	217.0037231445312	-235.4366302490234	-2187.79833984375	116.1668548583984	-234.1689605712891	-2164.268310546875	98.14347839355467	-266.4026184082031	-2171.588623046875	94.07291412353516	-208.4710388183594	-2899.9296875	302.0459594726562	-399.7093811035156
3	0.01	-2277.341796875	1572.41162109375	-470.7572631835938	-2359.3369140625	1557.575317382812	-162.5069732666016	-2333.560302734375	1093.36279296875	-472.9878540039062	-2341.3916015625	1104.900390625	-177.4320220947266	-2292.708984375	1048.716552734375	-447.6539916992188	-2863.69921875	329.2530212402344	-379.7045288085938	-2303.02294921875	1057.63330078125	-184.2394866943359	-2421.9423828125	987.52099609375	-492.5517578125	-2404.584228515625	967.6350708007812	-155.6146697998047	-2454.16552734375	1122.18115234375	-322.8823547363281	-2350.94189453125	807.3529052734375	-471.8958740234375	-2762.25927734375	418.6824645996094	-410.62451171875	-2428.930419921875	829.6478881835938	-496.3724975585938	-2385.437255859375	709.6769409179688	-458.5980834960938	-1981.90283203125	165.3599700927734	-164.2933654785156	-2690.84814453125	483.5619506835938	-448.1775817871094	-2464.479248046875	736.6844482421875	-472.6904907226562	-2240.9794921875	875.5036010742188	-171.9520721435547	-2754.24951171875	96.3059539794922	-377.4562377929688	-2313.53759765625	844.3722534179688	-149.9799499511719	-2203.513671875	779.9246826171875	-178.1332855224609	-2279.515869140625	752.22900390625	-166.2935485839844	-2494.708740234375	580.10205078125	-443.2609558105469	-2200.7919921875	601.8946533203125	-197.1533355712891	-2635.485595703125	419.2322387695312	-447.0876770019531	-2716.896240234375	358.5474548339844	-441.2510986328125	-2167.16455078125	415.8862609863281	-169.3474731445312	-2804.442138671875	141.8230895996094	-433.6999206542969	-2243.07080078125	396.3170166015625	-192.8599395751953	-2876.88916015625	310.008056640625	-347.3330688476562	-2139.136962890625	319.620849609375	-181.3516540527344	-2211.673828125	302.551513671875	-213.7468719482422	-2821.94970703125	296.1131896972656	-428.07421875	-2125.595703125	179.44384765625	-186.5416870117188	-1929.307861328125	221.6463012695312	-235.5012512207031	-2163.10302734375	116.1857147216797	-232.8871002197266	-2139.053466796875	96.97903442382812	-265.5632019042969	-2146.4296875	94.22203826904295	-208.0549774169922	-2889.237548828125	309.35986328125	-400.1847839355469
4	0.015	-2261.607666015625	1572.579711914062	-469.3077087402344	-2342.569580078125	1556.851440429688	-161.3864898681641	-2317.00927734375	1093.402587890625	-472.3498229980469	-2323.64453125	1104.463623046875	-177.7550659179688	-2276.537353515625	1049.380126953125	-448.0523071289062	-2851.39599609375	336.1014709472656	-379.2291870117188	-2286.717529296875	1056.5107421875	-184.9166870117188	-2404.958740234375	987.0137329101562	-492.268798828125	-2387.035888671875	966.6084594726562	-155.9114074707031	-2437.749267578125	1121.416137695312	-322.4560546875	-2332.73974609375	807.13037109375	-470.98583984375	-2746.877197265625	424.30224609375	-410.3123168945312	-2410.232666015625	828.6885375976562	-495.61865234375	-2366.074951171875	709.3034057617188	-457.5788879394531	-1959.434814453125	168.7300262451172	-164.28515625	-2673.675048828125	486.8288269042969	-448.0942993164062	-2445.654296875	735.8236083984375	-472.6228332519531	-2225.447265625	871.3562622070312	-172.3626403808594	-2743.8603515625	102.6272201538086	-375.0559997558594	-2297.59033203125	842.0464477539062	-148.2158660888672	-2190.05908203125	775.4080810546875	-178.2407531738281	-2266.18505859375	748.223876953125	-164.2454833984375	-2474.818359375	578.6481323242188	-442.5009765625	-2186.283447265625	598.8085327148438	-196.560302734375	-2620.2939453125	421.267333984375	-446.845703125	-2702.822509765625	362.4687194824219	-440.2441711425781	-2150.1162109375	414.9992980957031	-169.4136810302734	-2793.16748046875	148.6806030273438	-432.1552734375	-2226.11767578125	394.2000732421875	-193.5897979736328	-2866.02783203125	317.0663452148438	-347.3722534179688	-2119.1328125	319.6675415039062	-180.6567077636719	-2191.593505859375	300.321533203125	-213.3390197753906	-2810.041015625	302.8321838378906	-427.6957092285156	-2103.450439453125	179.3112487792969	-186.0472259521484	-1908.3115234375	225.5040588378906	-235.7909698486328	-2139.5673828125	114.46337890625	-232.7628021240234	-2116.215087890625	97.18513488769533	-265.1552734375	-2122.447265625	93.63868713378906	-206.8347625732422	-2877.719482421875	316.1912841796875	-400.7648315429688
